<?xml version="1.0" encoding="UTF-8" standalone="no"?>
<svg xmlns="http://www.w3.org/2000/svg" version="1.1"
  height="3em"
   viewBox="0 0 80 15">
  <title>Textricator logo with text</title>
  <rect x="0" y="0"
     height="5" width="20"
     style="fill:#acdde4" />
  <rect x="7" y="5"
     height="10" width="6"
     style="fill:#ff0000" />
  <path d="m 9.5,10 -4,0 -4,-5 h 4 l 4,5 z"
     style="fill:#000000" />
  <g><!-- "extricator" -->
    <path
       d="m 14.423828,10.419271 q 0,-1.761719 0.780599,-2.8144534 0.787761,-1.0527344 2.492188,-1.0527344 1.611328,0 2.434896,1.0240885 0.830729,1.0240886 0.830729,2.5208333 0,0.615886 -0.02865,0.909505 h -4.705078 q 0.07161,0.952474 0.565755,1.27474 0.501302,0.322266 1.296224,0.322266 1.289062,0 2.492187,-0.565756 v 1.417969 q -1.217447,0.658854 -2.757161,0.658854 -0.486979,0 -0.916667,-0.07878 -0.429687,-0.07878 -0.902344,-0.329427 -0.465494,-0.250651 -0.809244,-0.63737 -0.336589,-0.386718 -0.558594,-1.067057 -0.214844,-0.6875 -0.214844,-1.582682 z m 1.804688,-0.6302086 h 2.950521 q -0.07162,-0.7591146 -0.451172,-1.2819011 -0.372396,-0.5227864 -1.03125,-0.5227864 -0.658855,0 -1.03125,0.4296875 -0.365235,0.422526 -0.436849,1.375 z" />
    <path
       d="m 21.929037,14 2.59961,-3.695313 -2.535157,-3.6236976 h 2.155599 l 1.460938,2.0839844 1.468099,-2.0839844 h 1.955078 L 26.583985,10.139974 29.291016,14 H 27.135417 L 25.495443,11.665365 23.841147,14 Z" />
    <path
       d="M 30.064454,8.1920572 V 6.6809894 h 1.231771 V 4.5110675 h 1.761719 v 2.1699219 h 1.733073 v 1.5110678 h -1.733073 v 3.6093748 q 0,0.472657 0.193359,0.63737 0.200521,0.164714 0.701823,0.164714 0.472657,0 0.837891,-0.157552 v 1.453776 q -0.515625,0.214843 -1.124349,0.214843 -0.02148,0 -0.03581,0 -1.088542,0 -1.711589,-0.644531 -0.623047,-0.644531 -0.623047,-1.776042 V 8.1920572 Z" />
    <path
       d="M 36.516929,14 V 7.3398436 Q 36.695965,7.2539061 37.01107,7.1393228 37.326174,7.017578 38.278648,6.8027342 39.231122,6.580729 40.169273,6.5664061 v 1.5253906 q -1.102865,0.014323 -1.890625,0.2434896 V 14 Z" />
    <path
       d="M 41.837892,5.6855467 V 4.0742185 h 1.797526 V 5.6855467 Z M 41.866538,14 V 6.6809894 h 1.754557 V 14 Z" />
    <path
       d="m 45.518881,10.347656 q 0,-1.8333332 0.895183,-2.8072916 0.895182,-0.9739583 2.563802,-0.9739583 1.074219,0 2.11263,0.4082031 v 1.468099 q -0.866536,-0.3509115 -1.81901,-0.3509115 -1.009766,0 -1.503907,0.4654948 -0.486979,0.4583334 -0.486979,1.7903645 0,1.317709 0.486979,1.790365 0.494141,0.465495 1.503907,0.465495 0.909505,0 1.81901,-0.365235 v 1.468099 q -1.038411,0.408203 -2.11263,0.408203 -1.66862,0 -2.563802,-0.973958 -0.895183,-0.973958 -0.895183,-2.792969 z" />
    <path
       d="m 52.451173,11.608073 q 0,-0.222005 0.04297,-0.451172 0.04297,-0.236328 0.222005,-0.58724 0.186198,-0.350911 0.501302,-0.615885 0.315104,-0.264974 0.93099,-0.4511719 0.615885,-0.1933594 1.453776,-0.1933594 0.601562,0 1.289062,0.1002604 0,-1.3821615 -1.554036,-1.3821615 -1.231771,0 -2.141276,0.3723959 V 6.9746092 q 1.009765,-0.4082031 2.241536,-0.4082031 1.56836,0 2.399089,0.8020833 0.830729,0.7949219 0.830729,2.3059897 v 1.9765629 q 0,1.009765 -0.759114,1.740234 -0.751954,0.723307 -2.320313,0.723307 -1.611328,0 -2.377604,-0.730468 -0.759115,-0.730469 -0.759115,-1.776042 z m 1.740235,-0.222005 q 0,1.174479 1.382161,1.174479 0.0072,0 0.01432,0 1.317708,0 1.317708,-1.110026 v -0.923828 q -0.615885,-0.08594 -1.052734,-0.0931 -1.654297,0 -1.661458,0.952474 z" />
    <path
       d="M 59.770185,8.1920572 V 6.6809894 h 1.231771 V 4.5110675 h 1.761718 v 2.1699219 h 1.733073 v 1.5110678 h -1.733073 v 3.6093748 q 0,0.472657 0.19336,0.63737 0.200521,0.164714 0.701823,0.164714 0.472656,0 0.83789,-0.157552 v 1.453776 q -0.515625,0.214843 -1.124349,0.214843 -0.02148,0 -0.03581,0 -1.088542,0 -1.711588,-0.644531 -0.623047,-0.644531 -0.623047,-1.776042 V 8.1920572 Z" />
    <path
       d="m 66.788414,13.140625 q -0.895182,-0.973958 -0.895182,-2.792969 0,-1.8190103 0.895182,-2.7929686 0.895182,-0.9739584 2.563802,-0.9739584 1.675781,0 2.570964,0.9739584 0.895182,0.9739583 0.895182,2.7929686 0,1.819011 -0.895182,2.792969 -0.895183,0.973958 -2.570964,0.973958 -1.66862,0 -2.563802,-0.973958 z m 1.281901,-4.6334637 q -0.415364,0.4798178 -0.415364,1.8476567 0,1.360677 0.415364,1.840494 0.422526,0.472657 1.289063,0.472657 0.866536,0 1.281901,-0.472657 0.415364,-0.479817 0.415364,-1.840494 0,-1.3678389 -0.415364,-1.8476567 -0.415365,-0.4798177 -1.281901,-0.4798177 -0.866537,0 -1.289063,0.4798177 z" />
    <path
       d="M 74.558595,14 V 7.3398436 Q 74.737632,7.2539061 75.052736,7.1393228 75.36784,7.017578 76.320314,6.8027342 77.272788,6.580729 78.210939,6.5664061 v 1.5253906 q -1.102865,0.014323 -1.890625,0.2434896 V 14 Z" />
  </g>
</svg>
