<svg xmlns="http://www.w3.org/2000/svg" viewBox="0 0 129.58 118.64" height="5em">
  <defs>
    <style>
      .cls-1{fill:#e6e7e8;}.cls-2{fill:#231f20;}.cls-3{fill:#9dbcc4;}.cls-4{fill:#262f31;}.cls-5{fill:#ee423c;}.cls-6{fill:#71949d;}.cls-7{fill:#b1dbe2;}
    </style>
  </defs>
  <title>Textricator mascot</title>
  <g id="Layer_2" data-name="Layer 2">
    <g id="Layer_1-2" data-name="Layer 1">
      <circle class="cls-1" cx="80.11" cy="11.95" r="11.95"/>
      <circle class="cls-2" cx="83.4" cy="12.83" r="4.87"/>
      <circle class="cls-1" cx="102.27" cy="11.95" r="10.78"/>
      <circle class="cls-2" cx="105.23" cy="12.83" r="4.4"/>
      <polygon class="cls-3" points="118.03 83.28 115.51 70.72 111.13 78.95 118.03 83.28"/>
      <polygon class="cls-4" points="34.14 64.7 18.24 40.31 0 38.44 15.89 62.83 34.14 64.7"/>
      <polygon class="cls-5" points="49.16 91.05 49.18 35.31 24.64 33.77 24.63 89.52 49.16 91.05"/>
      <polygon class="cls-3" points="129.58 90.54 127.39 71.22 120.24 84.67 129.58 90.54"/>
      <polygon class="cls-6" points="109.03 41.72 114.23 52.17 115.68 40.86 109.03 41.72"/>
      <polygon class="cls-6" points="118.72 40.47 124.45 55.43 128.3 39.25 118.72 40.47"/>
      <polygon class="cls-6" points="76.61 95.6 129.58 90.54 92.46 67.22 45.37 70.83 76.61 95.53 76.61 95.6"/>
      <polygon class="cls-7" points="76.56 95.6 129.58 90.54 126.03 109.82 76.57 118.64 76.56 95.6"/>
      <polygon class="cls-7" points="68.53 21.67 123.35 19.87 128.3 39.25 76.97 45.82 68.53 21.67"/>
      <polygon class="cls-3"
               points="76.97 45.82 76.91 45.85 76.97 45.82 68.53 21.66 41.73 52.63 45.3 60.88 58.62 54.55 60.99 59.82 62.26 52.82 66.85 50.63 73.17 64.65 76.97 45.82"/>
      <polygon class="cls-3"
               points="76.61 95.53 74.43 76.95 68.12 88.81 64.82 86.21 63.49 74.45 59.48 81.99 45.37 70.83 44.73 82.84 76.62 118.57 76.61 95.53"/>
    </g>
  </g>
</svg>